<?xml version="1.0" standalone="no"?>
<!DOCTYPE svg PUBLIC "-//W3C//DTD SVG 20010904//EN"
 "http://www.w3.org/TR/2001/REC-SVG-20010904/DTD/svg10.dtd">
<svg version="1.0" xmlns="http://www.w3.org/2000/svg"
 width="3000.000000pt" height="3000.000000pt" viewBox="0 0 3000.000000 3000.000000"
 preserveAspectRatio="xMidYMid meet">

<g transform="translate(0.000000,3000.000000) scale(0.100000,-0.100000)"
fill="#000000" stroke="none">
<path d="M2355 21852 c-120 -42 -214 -125 -268 -240 l-32 -67 -3 -1310 c-2
-1293 -2 -1311 18 -1377 37 -124 136 -227 268 -280 l57 -23 1305 0 c1256 0
1307 1 1360 19 136 47 233 142 286 281 18 48 19 97 22 1315 2 783 -1 1289 -7
1328 -26 168 -142 303 -303 354 -57 17 -122 18 -1356 18 -1204 -1 -1301 -2
-1347 -18z m2493 -1639 l-3 -1138 -1137 -3 -1138 -2 0 1140 0 1140 1140 0
1140 0 -2 -1137z"/>
<path d="M3254 20961 c-146 -42 -260 -158 -298 -306 -13 -48 -16 -129 -16
-446 0 -351 2 -393 19 -448 39 -125 120 -218 239 -274 l67 -32 445 0 445 0 70
34 c90 44 162 116 206 206 l34 70 0 445 0 445 -32 67 c-56 119 -149 200 -274
239 -55 17 -96 19 -452 18 -343 0 -400 -3 -453 -18z"/>
<path d="M5962 21850 c-123 -44 -211 -123 -265 -238 l-32 -67 0 -1335 0 -1335
32 -68 c45 -94 119 -169 213 -215 l75 -37 3061 -3 c2959 -2 3064 -2 3121 16
126 40 233 140 285 270 l23 57 0 1315 0 1315 -23 57 c-52 130 -159 230 -284
270 -58 17 -170 18 -3106 18 -2979 -1 -3048 -1 -3100 -20z"/>
<path d="M13017 21860 c-131 -23 -257 -120 -318 -245 l-34 -70 0 -1330 0
-1330 24 -64 c17 -43 42 -82 80 -124 66 -71 108 -99 190 -127 60 -20 79 -20
1356 -20 1277 0 1296 0 1356 20 111 38 200 111 252 207 58 108 57 92 57 1426
0 795 -4 1245 -11 1287 -26 166 -132 294 -294 356 -48 18 -97 19 -1330 20
-704 1 -1302 -2 -1328 -6z m2433 -1650 l0 -1140 -1135 0 -1135 0 0 1140 0
1140 1135 0 1135 0 0 -1140z"/>
<path d="M13837 20946 c-130 -47 -222 -141 -267 -276 -20 -59 -21 -79 -18
-478 3 -408 4 -418 26 -474 44 -110 140 -206 249 -250 57 -22 67 -23 456 -26
267 -2 417 1 453 8 131 27 247 121 307 247 l32 68 0 445 0 445 -32 66 c-44 89
-121 167 -208 210 l-70 34 -430 3 -430 2 -68 -24z"/>
<path d="M17120 15086 l0 -6576 1195 0 1195 0 0 2565 0 2565 565 0 c534 0 569
-1 621 -19 129 -46 343 -224 516 -431 250 -298 497 -676 841 -1290 91 -162
561 -990 1045 -1840 l880 -1545 1375 -3 1376 -2 -73 127 c-40 71 -548 956
-1128 1968 -1068 1863 -1215 2115 -1454 2487 -434 676 -812 1136 -1087 1323
-109 74 -114 93 -29 119 184 57 492 187 672 284 685 366 1174 855 1485 1487
258 523 367 1050 352 1705 -8 350 -43 627 -118 924 -216 857 -723 1540 -1482
1998 -609 367 -1367 598 -2242 683 -389 37 -438 38 -2482 42 l-2023 4 0 -6575z
m3730 4614 c430 -26 789 -117 1059 -267 233 -129 404 -257 549 -408 250 -262
403 -581 478 -1000 26 -144 27 -573 1 -730 -110 -667 -442 -1142 -992 -1417
-273 -138 -534 -216 -880 -264 -101 -14 -236 -18 -837 -21 l-718 -4 0 2060 0
2061 588 0 c323 0 661 -5 752 -10z"/>
<path d="M2426 18369 c-160 -23 -304 -143 -355 -297 l-21 -61 0 -3046 0 -3046
21 -61 c43 -128 138 -228 267 -280 l57 -23 1315 0 1315 0 57 23 c129 52 224
152 267 280 l21 61 0 3046 0 3046 -21 61 c-53 158 -194 273 -364 298 -87 12
-2473 11 -2559 -1z"/>
<path d="M13040 18369 c-184 -27 -327 -154 -370 -329 -8 -33 -10 -894 -8
-3105 l3 -3060 33 -68 c64 -131 188 -224 328 -247 78 -13 2509 -13 2586 0 128
20 259 113 314 222 57 113 54 -96 54 3185 0 2941 -1 3033 -19 3092 -26 82 -60
138 -120 194 -65 61 -156 104 -246 117 -85 12 -2473 12 -2555 -1z"/>
<path d="M7887 17008 c-19 -24 -110 -142 -203 -263 -274 -355 -1164 -1508
-1481 -1919 l-293 -380 0 -248 0 -248 905 0 905 0 0 -495 0 -495 360 0 360 0
0 495 0 495 305 0 305 0 0 300 0 300 -305 0 -305 0 0 1250 0 1250 -259 0 -260
0 -34 -42z m-149 -1370 c-11 -179 -17 -430 -17 -684 l-1 -401 -492 -5 c-271
-3 -495 -4 -497 -2 -2 2 86 124 196 271 262 352 590 794 717 965 55 76 103
137 106 138 3 0 -2 -127 -12 -282z"/>
<path d="M9810 15951 l0 -1069 433 -5 c251 -3 468 -10 517 -17 460 -65 670
-266 670 -639 -1 -284 -136 -495 -393 -610 -131 -59 -350 -101 -525 -101 -231
0 -521 59 -734 150 l-69 30 -13 -33 c-24 -57 -186 -525 -186 -535 0 -29 299
-136 490 -176 261 -54 661 -66 925 -28 716 105 1145 463 1260 1053 25 129 31
363 11 484 -60 365 -269 650 -606 827 -222 117 -527 178 -887 178 l-173 0 0
480 0 480 778 0 777 0 19 78 c61 254 118 489 122 505 5 16 -57 17 -1205 17
l-1211 0 0 -1069z"/>
<path d="M5963 11295 c-140 -31 -268 -124 -293 -213 -6 -24 -10 -472 -10
-1297 0 -1099 2 -1268 15 -1319 43 -164 180 -329 336 -405 46 -22 113 -48 149
-58 62 -17 293 -18 4618 -20 4973 -3 4645 -7 4735 52 95 64 89 208 -15 367
-49 74 -253 280 -653 658 -159 151 -333 315 -385 365 -52 51 -234 224 -405
385 -170 161 -357 339 -415 394 -394 378 -871 827 -913 859 -119 90 -276 164
-453 214 l-99 28 -3075 2 c-2554 1 -3086 -1 -3137 -12z"/>
<path d="M2337 11276 c-131 -47 -221 -140 -267 -275 -20 -60 -20 -79 -20
-1356 0 -1277 0 -1296 20 -1356 26 -76 57 -126 112 -179 61 -59 113 -87 203
-110 76 -19 111 -20 1316 -20 1347 0 1318 -1 1431 56 113 57 207 189 228 320
13 79 13 2499 0 2578 -23 140 -119 268 -247 329 l-68 32 -1320 2 -1320 3 -68
-24z m2513 -1631 l0 -1135 -1140 0 -1140 0 0 1135 0 1135 1140 0 1140 0 0
-1135z"/>
<path d="M3280 10403 c-62 -11 -169 -74 -219 -129 -115 -126 -121 -156 -121
-629 0 -402 4 -445 49 -534 38 -73 118 -149 200 -189 l76 -37 421 -3 c405 -3
424 -2 484 18 107 36 192 104 247 197 50 85 53 117 53 548 0 431 -3 463 -53
548 -54 92 -140 161 -246 197 -57 19 -82 20 -463 19 -222 -1 -414 -4 -428 -6z"/>
</g>
</svg>
